<mxfile host="localhost" modified="2020-05-22T15:26:37.457Z" agent="5.0 (Macintosh; Intel Mac OS X 10_15_4) AppleWebKit/537.36 (KHTML, like Gecko) Code/1.45.1 Chrome/78.0.3904.130 Electron/7.2.4 Safari/537.36" etag="crTV0NFoMpbQBV_bk3_9" version="13.0.9" pages="2">
    <diagram id="0xm-jNK0APC7B1VQidQn" name="Overview">
        <mxGraphModel dx="718" dy="391" grid="1" gridSize="10" guides="1" tooltips="1" connect="1" arrows="1" fold="1" page="1" pageScale="1" pageWidth="1169" pageHeight="827" math="0" shadow="0">
            <root>
                <mxCell id="7IiopWuCACa68WdEYyvE-0"/>
                <mxCell id="7IiopWuCACa68WdEYyvE-1" parent="7IiopWuCACa68WdEYyvE-0"/>
                <mxCell id="xjUkvjyS-5s0rUv9j0Um-6" value="Match" style="whiteSpace=wrap;html=1;align=center;" parent="7IiopWuCACa68WdEYyvE-1" vertex="1">
                    <mxGeometry x="260" y="374" width="100" height="40" as="geometry"/>
                </mxCell>
                <mxCell id="xjUkvjyS-5s0rUv9j0Um-7" value="Participants" style="whiteSpace=wrap;html=1;align=center;" parent="7IiopWuCACa68WdEYyvE-1" vertex="1">
                    <mxGeometry x="450" y="374" width="100" height="40" as="geometry"/>
                </mxCell>
                <mxCell id="xjUkvjyS-5s0rUv9j0Um-8" value="" style="edgeStyle=entityRelationEdgeStyle;fontSize=12;html=1;endArrow=ERoneToMany;" parent="7IiopWuCACa68WdEYyvE-1" source="xjUkvjyS-5s0rUv9j0Um-6" target="xjUkvjyS-5s0rUv9j0Um-7" edge="1">
                    <mxGeometry width="100" height="100" relative="1" as="geometry">
                        <mxPoint x="530" y="460" as="sourcePoint"/>
                        <mxPoint x="630" y="360" as="targetPoint"/>
                    </mxGeometry>
                </mxCell>
                <mxCell id="xjUkvjyS-5s0rUv9j0Um-9" value="Traits" style="whiteSpace=wrap;html=1;align=center;" parent="7IiopWuCACa68WdEYyvE-1" vertex="1">
                    <mxGeometry x="610" y="260" width="100" height="40" as="geometry"/>
                </mxCell>
                <mxCell id="xjUkvjyS-5s0rUv9j0Um-10" value="Units (Champions)" style="whiteSpace=wrap;html=1;align=center;" parent="7IiopWuCACa68WdEYyvE-1" vertex="1">
                    <mxGeometry x="610" y="460" width="100" height="40" as="geometry"/>
                </mxCell>
                <mxCell id="xjUkvjyS-5s0rUv9j0Um-11" value="" style="edgeStyle=entityRelationEdgeStyle;fontSize=12;html=1;endArrow=ERoneToMany;" parent="7IiopWuCACa68WdEYyvE-1" source="xjUkvjyS-5s0rUv9j0Um-7" target="xjUkvjyS-5s0rUv9j0Um-9" edge="1">
                    <mxGeometry width="100" height="100" relative="1" as="geometry">
                        <mxPoint x="530" y="460" as="sourcePoint"/>
                        <mxPoint x="630" y="360" as="targetPoint"/>
                    </mxGeometry>
                </mxCell>
                <mxCell id="xjUkvjyS-5s0rUv9j0Um-12" value="" style="edgeStyle=entityRelationEdgeStyle;fontSize=12;html=1;endArrow=ERoneToMany;" parent="7IiopWuCACa68WdEYyvE-1" source="xjUkvjyS-5s0rUv9j0Um-7" target="xjUkvjyS-5s0rUv9j0Um-10" edge="1">
                    <mxGeometry width="100" height="100" relative="1" as="geometry">
                        <mxPoint x="530" y="460" as="sourcePoint"/>
                        <mxPoint x="630" y="360" as="targetPoint"/>
                    </mxGeometry>
                </mxCell>
            </root>
        </mxGraphModel>
    </diagram>
    <diagram id="6hGFLwfOUW9BJ-s0fimq" name="Atomic">
        <mxGraphModel dx="1026" dy="559" grid="1" gridSize="10" guides="1" tooltips="1" connect="1" arrows="1" fold="1" page="1" pageScale="1" pageWidth="1169" pageHeight="827" math="0" shadow="0">
            <root>
                <mxCell id="0"/>
                <mxCell id="1" parent="0"/>
                <mxCell id="77" value="" style="edgeStyle=entityRelationEdgeStyle;fontSize=12;html=1;endArrow=ERmandOne;startArrow=ERmandOne;" parent="1" source="72" edge="1" target="3">
                    <mxGeometry width="100" height="100" relative="1" as="geometry">
                        <mxPoint x="256" y="210" as="sourcePoint"/>
                        <mxPoint x="922" y="405" as="targetPoint"/>
                    </mxGeometry>
                </mxCell>
                <mxCell id="2T9eNnJpT9F12diKmHwY-92" value="" style="edgeStyle=entityRelationEdgeStyle;fontSize=12;html=1;endArrow=ERmandOne;startArrow=ERmandOne;" parent="1" source="2T9eNnJpT9F12diKmHwY-91" target="35" edge="1">
                    <mxGeometry width="100" height="100" relative="1" as="geometry">
                        <mxPoint x="622" y="530" as="sourcePoint"/>
                        <mxPoint x="722" y="430" as="targetPoint"/>
                    </mxGeometry>
                </mxCell>
                <mxCell id="2T9eNnJpT9F12diKmHwY-98" value="" style="edgeStyle=entityRelationEdgeStyle;fontSize=12;html=1;endArrow=ERmandOne;startArrow=ERmandOne;" parent="1" source="61" target="2T9eNnJpT9F12diKmHwY-94" edge="1">
                    <mxGeometry width="100" height="100" relative="1" as="geometry">
                        <mxPoint x="622" y="530" as="sourcePoint"/>
                        <mxPoint x="722" y="430" as="targetPoint"/>
                    </mxGeometry>
                </mxCell>
                <mxCell id="2T9eNnJpT9F12diKmHwY-99" value="" style="edgeStyle=entityRelationEdgeStyle;fontSize=12;html=1;endArrow=ERmandOne;startArrow=ERmandOne;" parent="1" source="2T9eNnJpT9F12diKmHwY-95" target="48" edge="1">
                    <mxGeometry width="100" height="100" relative="1" as="geometry">
                        <mxPoint x="622" y="530" as="sourcePoint"/>
                        <mxPoint x="722" y="430" as="targetPoint"/>
                    </mxGeometry>
                </mxCell>
                <mxCell id="2T9eNnJpT9F12diKmHwY-101" value="" style="edgeStyle=entityRelationEdgeStyle;fontSize=12;html=1;endArrow=ERmandOne;startArrow=ERmandOne;" parent="1" source="WRICSS_Tp3-yUelDH9By-82" target="70" edge="1">
                    <mxGeometry width="100" height="100" relative="1" as="geometry">
                        <mxPoint x="622" y="530" as="sourcePoint"/>
                        <mxPoint x="722" y="430" as="targetPoint"/>
                    </mxGeometry>
                </mxCell>
                <mxCell id="Cb6FzQwhccpI9IsfSWGt-108" value="" style="edgeStyle=entityRelationEdgeStyle;fontSize=12;html=1;endArrow=ERmandOne;startArrow=ERmandOne;" parent="1" source="Cb6FzQwhccpI9IsfSWGt-89" target="55" edge="1">
                    <mxGeometry width="100" height="100" relative="1" as="geometry">
                        <mxPoint x="390" y="350" as="sourcePoint"/>
                        <mxPoint x="490" y="250" as="targetPoint"/>
                    </mxGeometry>
                </mxCell>
                <mxCell id="Cb6FzQwhccpI9IsfSWGt-109" value="" style="edgeStyle=entityRelationEdgeStyle;fontSize=12;html=1;endArrow=ERmandOne;startArrow=ERmandOne;" parent="1" source="Cb6FzQwhccpI9IsfSWGt-97" target="Cb6FzQwhccpI9IsfSWGt-99" edge="1">
                    <mxGeometry width="100" height="100" relative="1" as="geometry">
                        <mxPoint x="390" y="350" as="sourcePoint"/>
                        <mxPoint x="490" y="250" as="targetPoint"/>
                    </mxGeometry>
                </mxCell>
                <mxCell id="Cb6FzQwhccpI9IsfSWGt-112" value="" style="edgeStyle=entityRelationEdgeStyle;fontSize=12;html=1;endArrow=ERmandOne;startArrow=ERmandOne;" parent="1" source="Cb6FzQwhccpI9IsfSWGt-121" target="80" edge="1">
                    <mxGeometry width="100" height="100" relative="1" as="geometry">
                        <mxPoint x="410" y="450" as="sourcePoint"/>
                        <mxPoint x="510" y="350" as="targetPoint"/>
                    </mxGeometry>
                </mxCell>
                <mxCell id="Cb6FzQwhccpI9IsfSWGt-118" value="" style="edgeStyle=entityRelationEdgeStyle;fontSize=12;html=1;endArrow=ERmandOne;startArrow=ERmandOne;" parent="1" source="Cb6FzQwhccpI9IsfSWGt-94" target="Cb6FzQwhccpI9IsfSWGt-114" edge="1">
                    <mxGeometry width="100" height="100" relative="1" as="geometry">
                        <mxPoint x="460" y="500" as="sourcePoint"/>
                        <mxPoint x="560" y="400" as="targetPoint"/>
                    </mxGeometry>
                </mxCell>
                <mxCell id="Cb6FzQwhccpI9IsfSWGt-88" value="Match" style="swimlane;fontStyle=0;childLayout=stackLayout;horizontal=1;startSize=26;horizontalStack=0;resizeParent=1;resizeParentMax=0;resizeLast=0;collapsible=1;marginBottom=0;align=center;fontSize=14;" parent="1" vertex="1">
                    <mxGeometry x="20" y="50" width="160" height="208" as="geometry"/>
                </mxCell>
                <mxCell id="Cb6FzQwhccpI9IsfSWGt-89" value="match_id" style="text;strokeColor=none;fillColor=none;spacingLeft=4;spacingRight=4;overflow=hidden;rotatable=0;points=[[0,0.5],[1,0.5]];portConstraint=eastwest;fontSize=12;" parent="Cb6FzQwhccpI9IsfSWGt-88" vertex="1">
                    <mxGeometry y="26" width="160" height="26" as="geometry"/>
                </mxCell>
                <mxCell id="Cb6FzQwhccpI9IsfSWGt-95" value="queue_id" style="text;strokeColor=none;fillColor=none;spacingLeft=4;spacingRight=4;overflow=hidden;rotatable=0;points=[[0,0.5],[1,0.5]];portConstraint=eastwest;fontSize=12;" parent="Cb6FzQwhccpI9IsfSWGt-88" vertex="1">
                    <mxGeometry y="52" width="160" height="26" as="geometry"/>
                </mxCell>
                <mxCell id="Cb6FzQwhccpI9IsfSWGt-96" value="tft_set_number" style="text;strokeColor=none;fillColor=none;spacingLeft=4;spacingRight=4;overflow=hidden;rotatable=0;points=[[0,0.5],[1,0.5]];portConstraint=eastwest;fontSize=12;" parent="Cb6FzQwhccpI9IsfSWGt-88" vertex="1">
                    <mxGeometry y="78" width="160" height="26" as="geometry"/>
                </mxCell>
                <mxCell id="Cb6FzQwhccpI9IsfSWGt-92" value="data_version" style="text;strokeColor=none;fillColor=none;spacingLeft=4;spacingRight=4;overflow=hidden;rotatable=0;points=[[0,0.5],[1,0.5]];portConstraint=eastwest;fontSize=12;" parent="Cb6FzQwhccpI9IsfSWGt-88" vertex="1">
                    <mxGeometry y="104" width="160" height="26" as="geometry"/>
                </mxCell>
                <mxCell id="Cb6FzQwhccpI9IsfSWGt-94" value="version" style="text;strokeColor=none;fillColor=none;spacingLeft=4;spacingRight=4;overflow=hidden;rotatable=0;points=[[0,0.5],[1,0.5]];portConstraint=eastwest;fontSize=12;" parent="Cb6FzQwhccpI9IsfSWGt-88" vertex="1">
                    <mxGeometry y="130" width="160" height="26" as="geometry"/>
                </mxCell>
                <mxCell id="Cb6FzQwhccpI9IsfSWGt-91" value="game_datetime" style="text;strokeColor=none;fillColor=none;spacingLeft=4;spacingRight=4;overflow=hidden;rotatable=0;points=[[0,0.5],[1,0.5]];portConstraint=eastwest;fontSize=12;" parent="Cb6FzQwhccpI9IsfSWGt-88" vertex="1">
                    <mxGeometry y="156" width="160" height="26" as="geometry"/>
                </mxCell>
                <mxCell id="Cb6FzQwhccpI9IsfSWGt-93" value="game_length" style="text;strokeColor=none;fillColor=none;spacingLeft=4;spacingRight=4;overflow=hidden;rotatable=0;points=[[0,0.5],[1,0.5]];portConstraint=eastwest;fontSize=12;" parent="Cb6FzQwhccpI9IsfSWGt-88" vertex="1">
                    <mxGeometry y="182" width="160" height="26" as="geometry"/>
                </mxCell>
                <mxCell id="53" value="Match_Participant" style="swimlane;fontStyle=0;childLayout=stackLayout;horizontal=1;startSize=26;horizontalStack=0;resizeParent=1;resizeParentMax=0;resizeLast=0;collapsible=1;marginBottom=0;align=center;fontSize=14;" parent="1" vertex="1">
                    <mxGeometry x="240" y="50" width="160" height="78" as="geometry"/>
                </mxCell>
                <mxCell id="55" value="match_id" style="text;strokeColor=none;fillColor=none;spacingLeft=4;spacingRight=4;overflow=hidden;rotatable=0;points=[[0,0.5],[1,0.5]];portConstraint=eastwest;fontSize=12;" parent="53" vertex="1">
                    <mxGeometry y="26" width="160" height="26" as="geometry"/>
                </mxCell>
                <mxCell id="Cb6FzQwhccpI9IsfSWGt-97" value="participant_uuid" style="text;strokeColor=none;fillColor=none;spacingLeft=4;spacingRight=4;overflow=hidden;rotatable=0;points=[[0,0.5],[1,0.5]];portConstraint=eastwest;fontSize=12;" parent="53" vertex="1">
                    <mxGeometry y="52" width="160" height="26" as="geometry"/>
                </mxCell>
                <mxCell id="Cb6FzQwhccpI9IsfSWGt-98" value="Participant" style="swimlane;fontStyle=0;childLayout=stackLayout;horizontal=1;startSize=26;horizontalStack=0;resizeParent=1;resizeParentMax=0;resizeLast=0;collapsible=1;marginBottom=0;align=center;fontSize=14;" parent="1" vertex="1">
                    <mxGeometry x="230" y="150" width="160" height="312" as="geometry"/>
                </mxCell>
                <mxCell id="Cb6FzQwhccpI9IsfSWGt-99" value="puuid" style="text;strokeColor=none;fillColor=none;spacingLeft=4;spacingRight=4;overflow=hidden;rotatable=0;points=[[0,0.5],[1,0.5]];portConstraint=eastwest;fontSize=12;" parent="Cb6FzQwhccpI9IsfSWGt-98" vertex="1">
                    <mxGeometry y="26" width="160" height="26" as="geometry"/>
                </mxCell>
                <mxCell id="Cb6FzQwhccpI9IsfSWGt-100" value="gold_left" style="text;strokeColor=none;fillColor=none;spacingLeft=4;spacingRight=4;overflow=hidden;rotatable=0;points=[[0,0.5],[1,0.5]];portConstraint=eastwest;fontSize=12;" parent="Cb6FzQwhccpI9IsfSWGt-98" vertex="1">
                    <mxGeometry y="52" width="160" height="26" as="geometry"/>
                </mxCell>
                <mxCell id="Cb6FzQwhccpI9IsfSWGt-101" value="companion" style="text;strokeColor=none;fillColor=none;spacingLeft=4;spacingRight=4;overflow=hidden;rotatable=0;points=[[0,0.5],[1,0.5]];portConstraint=eastwest;fontSize=12;" parent="Cb6FzQwhccpI9IsfSWGt-98" vertex="1">
                    <mxGeometry y="78" width="160" height="26" as="geometry"/>
                </mxCell>
                <mxCell id="Cb6FzQwhccpI9IsfSWGt-102" value="last_round" style="text;strokeColor=none;fillColor=none;spacingLeft=4;spacingRight=4;overflow=hidden;rotatable=0;points=[[0,0.5],[1,0.5]];portConstraint=eastwest;fontSize=12;" parent="Cb6FzQwhccpI9IsfSWGt-98" vertex="1">
                    <mxGeometry y="104" width="160" height="26" as="geometry"/>
                </mxCell>
                <mxCell id="Cb6FzQwhccpI9IsfSWGt-103" value="level" style="text;strokeColor=none;fillColor=none;spacingLeft=4;spacingRight=4;overflow=hidden;rotatable=0;points=[[0,0.5],[1,0.5]];portConstraint=eastwest;fontSize=12;" parent="Cb6FzQwhccpI9IsfSWGt-98" vertex="1">
                    <mxGeometry y="130" width="160" height="26" as="geometry"/>
                </mxCell>
                <mxCell id="Cb6FzQwhccpI9IsfSWGt-104" value="placement" style="text;strokeColor=none;fillColor=none;spacingLeft=4;spacingRight=4;overflow=hidden;rotatable=0;points=[[0,0.5],[1,0.5]];portConstraint=eastwest;fontSize=12;" parent="Cb6FzQwhccpI9IsfSWGt-98" vertex="1">
                    <mxGeometry y="156" width="160" height="26" as="geometry"/>
                </mxCell>
                <mxCell id="Cb6FzQwhccpI9IsfSWGt-105" value="players_eliminated" style="text;strokeColor=none;fillColor=none;spacingLeft=4;spacingRight=4;overflow=hidden;rotatable=0;points=[[0,0.5],[1,0.5]];portConstraint=eastwest;fontSize=12;" parent="Cb6FzQwhccpI9IsfSWGt-98" vertex="1">
                    <mxGeometry y="182" width="160" height="26" as="geometry"/>
                </mxCell>
                <mxCell id="Cb6FzQwhccpI9IsfSWGt-106" value="time_eliminated" style="text;strokeColor=none;fillColor=none;spacingLeft=4;spacingRight=4;overflow=hidden;rotatable=0;points=[[0,0.5],[1,0.5]];portConstraint=eastwest;fontSize=12;" parent="Cb6FzQwhccpI9IsfSWGt-98" vertex="1">
                    <mxGeometry y="208" width="160" height="26" as="geometry"/>
                </mxCell>
                <mxCell id="Cb6FzQwhccpI9IsfSWGt-107" value="total_damage_to_players" style="text;strokeColor=none;fillColor=none;spacingLeft=4;spacingRight=4;overflow=hidden;rotatable=0;points=[[0,0.5],[1,0.5]];portConstraint=eastwest;fontSize=12;" parent="Cb6FzQwhccpI9IsfSWGt-98" vertex="1">
                    <mxGeometry y="234" width="160" height="26" as="geometry"/>
                </mxCell>
                <mxCell id="Cb6FzQwhccpI9IsfSWGt-121" value="champions" style="text;strokeColor=none;fillColor=none;spacingLeft=4;spacingRight=4;overflow=hidden;rotatable=0;points=[[0,0.5],[1,0.5]];portConstraint=eastwest;fontSize=12;" parent="Cb6FzQwhccpI9IsfSWGt-98" vertex="1">
                    <mxGeometry y="260" width="160" height="26" as="geometry"/>
                </mxCell>
                <mxCell id="Cb6FzQwhccpI9IsfSWGt-111" value="traits" style="text;strokeColor=none;fillColor=none;spacingLeft=4;spacingRight=4;overflow=hidden;rotatable=0;points=[[0,0.5],[1,0.5]];portConstraint=eastwest;fontSize=12;" parent="Cb6FzQwhccpI9IsfSWGt-98" vertex="1">
                    <mxGeometry y="286" width="160" height="26" as="geometry"/>
                </mxCell>
                <mxCell id="34" value="Version_Champion" style="swimlane;fontStyle=0;childLayout=stackLayout;horizontal=1;startSize=54;horizontalStack=0;resizeParent=1;resizeParentMax=0;resizeLast=0;collapsible=1;marginBottom=0;align=center;fontSize=14;swimlaneFillColor=none;" parent="1" vertex="1">
                    <mxGeometry x="463" y="287" width="130" height="210" as="geometry"/>
                </mxCell>
                <mxCell id="35" value="uuid" style="text;strokeColor=none;fillColor=none;spacingLeft=4;spacingRight=4;overflow=hidden;rotatable=0;points=[[0,0.5],[1,0.5]];portConstraint=eastwest;fontSize=12;" parent="34" vertex="1">
                    <mxGeometry y="54" width="130" height="26" as="geometry"/>
                </mxCell>
                <mxCell id="61" value="champion_id" style="text;strokeColor=none;fillColor=none;spacingLeft=4;spacingRight=4;overflow=hidden;rotatable=0;points=[[0,0.5],[1,0.5]];portConstraint=eastwest;fontSize=12;" parent="34" vertex="1">
                    <mxGeometry y="80" width="130" height="26" as="geometry"/>
                </mxCell>
                <mxCell id="2T9eNnJpT9F12diKmHwY-102" value="name" style="text;strokeColor=none;fillColor=none;spacingLeft=4;spacingRight=4;overflow=hidden;rotatable=0;points=[[0,0.5],[1,0.5]];portConstraint=eastwest;fontSize=12;" parent="34" vertex="1">
                    <mxGeometry y="106" width="130" height="26" as="geometry"/>
                </mxCell>
                <mxCell id="39" value="version" style="text;strokeColor=none;fillColor=none;spacingLeft=4;spacingRight=4;overflow=hidden;rotatable=0;points=[[0,0.5],[1,0.5]];portConstraint=eastwest;fontSize=12;" parent="34" vertex="1">
                    <mxGeometry y="132" width="130" height="26" as="geometry"/>
                </mxCell>
                <mxCell id="36" value="rarity" style="text;strokeColor=none;fillColor=none;spacingLeft=4;spacingRight=4;overflow=hidden;rotatable=0;points=[[0,0.5],[1,0.5]];portConstraint=eastwest;fontSize=12;" parent="34" vertex="1">
                    <mxGeometry y="158" width="130" height="26" as="geometry"/>
                </mxCell>
                <mxCell id="37" value="tier" style="text;strokeColor=none;fillColor=none;spacingLeft=4;spacingRight=4;overflow=hidden;rotatable=0;points=[[0,0.5],[1,0.5]];portConstraint=eastwest;fontSize=12;" parent="34" vertex="1">
                    <mxGeometry y="184" width="130" height="26" as="geometry"/>
                </mxCell>
                <mxCell id="79" value="Participant_Champion" style="swimlane;fontStyle=0;childLayout=stackLayout;horizontal=1;startSize=26;horizontalStack=0;resizeParent=1;resizeParentMax=0;resizeLast=0;collapsible=1;marginBottom=0;align=center;fontSize=14;" parent="1" vertex="1">
                    <mxGeometry x="450" y="140" width="160" height="104" as="geometry"/>
                </mxCell>
                <mxCell id="80" value="uuid" style="text;strokeColor=none;fillColor=none;spacingLeft=4;spacingRight=4;overflow=hidden;rotatable=0;points=[[0,0.5],[1,0.5]];portConstraint=eastwest;fontSize=12;" parent="79" vertex="1">
                    <mxGeometry y="26" width="160" height="26" as="geometry"/>
                </mxCell>
                <mxCell id="WRICSS_Tp3-yUelDH9By-82" value="items" style="text;strokeColor=none;fillColor=none;spacingLeft=4;spacingRight=4;overflow=hidden;rotatable=0;points=[[0,0.5],[1,0.5]];portConstraint=eastwest;fontSize=12;" vertex="1" parent="79">
                    <mxGeometry y="52" width="160" height="26" as="geometry"/>
                </mxCell>
                <mxCell id="2T9eNnJpT9F12diKmHwY-91" value="champ_uuid" style="text;strokeColor=none;fillColor=none;spacingLeft=4;spacingRight=4;overflow=hidden;rotatable=0;points=[[0,0.5],[1,0.5]];portConstraint=eastwest;fontSize=12;" parent="79" vertex="1">
                    <mxGeometry y="78" width="160" height="26" as="geometry"/>
                </mxCell>
                <mxCell id="69" value="Champ_Items" style="swimlane;fontStyle=0;childLayout=stackLayout;horizontal=1;startSize=26;horizontalStack=0;resizeParent=1;resizeParentMax=0;resizeLast=0;collapsible=1;marginBottom=0;align=center;fontSize=14;" parent="1" vertex="1">
                    <mxGeometry x="692" y="166" width="160" height="78" as="geometry"/>
                </mxCell>
                <mxCell id="70" value="champ_id" style="text;strokeColor=none;fillColor=none;spacingLeft=4;spacingRight=4;overflow=hidden;rotatable=0;points=[[0,0.5],[1,0.5]];portConstraint=eastwest;fontSize=12;" parent="69" vertex="1">
                    <mxGeometry y="26" width="160" height="26" as="geometry"/>
                </mxCell>
                <mxCell id="72" value="item_id" style="text;strokeColor=none;fillColor=none;spacingLeft=4;spacingRight=4;overflow=hidden;rotatable=0;points=[[0,0.5],[1,0.5]];portConstraint=eastwest;fontSize=12;" parent="69" vertex="1">
                    <mxGeometry y="52" width="160" height="26" as="geometry"/>
                </mxCell>
                <mxCell id="2" value="Item" style="swimlane;fontStyle=0;childLayout=stackLayout;horizontal=1;startSize=26;horizontalStack=0;resizeParent=1;resizeParentMax=0;resizeLast=0;collapsible=1;marginBottom=0;align=center;fontSize=14;" parent="1" vertex="1">
                    <mxGeometry x="692" y="267" width="160" height="78" as="geometry">
                        <mxRectangle x="330" y="350" width="70" height="26" as="alternateBounds"/>
                    </mxGeometry>
                </mxCell>
                <mxCell id="3" value="item_id" style="text;strokeColor=none;fillColor=none;spacingLeft=4;spacingRight=4;overflow=hidden;rotatable=0;points=[[0,0.5],[1,0.5]];portConstraint=eastwest;fontSize=12;" parent="2" vertex="1">
                    <mxGeometry y="26" width="160" height="26" as="geometry"/>
                </mxCell>
                <mxCell id="4" value="item_name" style="text;strokeColor=none;fillColor=none;spacingLeft=4;spacingRight=4;overflow=hidden;rotatable=0;points=[[0,0.5],[1,0.5]];portConstraint=eastwest;fontSize=12;" parent="2" vertex="1">
                    <mxGeometry y="52" width="160" height="26" as="geometry"/>
                </mxCell>
                <mxCell id="Cb6FzQwhccpI9IsfSWGt-113" value="Version" style="swimlane;fontStyle=0;childLayout=stackLayout;horizontal=1;startSize=26;horizontalStack=0;resizeParent=1;resizeParentMax=0;resizeLast=0;collapsible=1;marginBottom=0;align=center;fontSize=14;" parent="1" vertex="1">
                    <mxGeometry x="240" y="700" width="160" height="104" as="geometry"/>
                </mxCell>
                <mxCell id="Cb6FzQwhccpI9IsfSWGt-114" value="version" style="text;strokeColor=none;fillColor=none;spacingLeft=4;spacingRight=4;overflow=hidden;rotatable=0;points=[[0,0.5],[1,0.5]];portConstraint=eastwest;fontSize=12;" parent="Cb6FzQwhccpI9IsfSWGt-113" vertex="1">
                    <mxGeometry y="26" width="160" height="26" as="geometry"/>
                </mxCell>
                <mxCell id="Cb6FzQwhccpI9IsfSWGt-115" value="date_start" style="text;strokeColor=none;fillColor=none;spacingLeft=4;spacingRight=4;overflow=hidden;rotatable=0;points=[[0,0.5],[1,0.5]];portConstraint=eastwest;fontSize=12;" parent="Cb6FzQwhccpI9IsfSWGt-113" vertex="1">
                    <mxGeometry y="52" width="160" height="26" as="geometry"/>
                </mxCell>
                <mxCell id="Cb6FzQwhccpI9IsfSWGt-116" value="date_end" style="text;strokeColor=none;fillColor=none;spacingLeft=4;spacingRight=4;overflow=hidden;rotatable=0;points=[[0,0.5],[1,0.5]];portConstraint=eastwest;fontSize=12;" parent="Cb6FzQwhccpI9IsfSWGt-113" vertex="1">
                    <mxGeometry y="78" width="160" height="26" as="geometry"/>
                </mxCell>
                <mxCell id="Cb6FzQwhccpI9IsfSWGt-122" value="" style="edgeStyle=entityRelationEdgeStyle;fontSize=12;html=1;endArrow=ERmandOne;startArrow=ERmandOne;" parent="1" source="Cb6FzQwhccpI9IsfSWGt-111" target="48" edge="1">
                    <mxGeometry width="100" height="100" relative="1" as="geometry">
                        <mxPoint x="520" y="500" as="sourcePoint"/>
                        <mxPoint x="620" y="400" as="targetPoint"/>
                    </mxGeometry>
                </mxCell>
                <mxCell id="47" value="Trait" style="swimlane;fontStyle=0;childLayout=stackLayout;horizontal=1;startSize=26;horizontalStack=0;resizeParent=1;resizeParentMax=0;resizeLast=0;collapsible=1;marginBottom=0;align=center;fontSize=14;" parent="1" vertex="1">
                    <mxGeometry x="448" y="520" width="160" height="104" as="geometry"/>
                </mxCell>
                <mxCell id="48" value="uuid" style="text;strokeColor=none;fillColor=none;spacingLeft=4;spacingRight=4;overflow=hidden;rotatable=0;points=[[0,0.5],[1,0.5]];portConstraint=eastwest;fontSize=12;" parent="47" vertex="1">
                    <mxGeometry y="26" width="160" height="26" as="geometry"/>
                </mxCell>
                <mxCell id="49" value="name" style="text;strokeColor=none;fillColor=none;spacingLeft=4;spacingRight=4;overflow=hidden;rotatable=0;points=[[0,0.5],[1,0.5]];portConstraint=eastwest;fontSize=12;" parent="47" vertex="1">
                    <mxGeometry y="52" width="160" height="26" as="geometry"/>
                </mxCell>
                <mxCell id="67" value="tier_total" style="text;strokeColor=none;fillColor=none;spacingLeft=4;spacingRight=4;overflow=hidden;rotatable=0;points=[[0,0.5],[1,0.5]];portConstraint=eastwest;fontSize=12;" parent="47" vertex="1">
                    <mxGeometry y="78" width="160" height="26" as="geometry"/>
                </mxCell>
                <mxCell id="2T9eNnJpT9F12diKmHwY-93" value="Champion_traits" style="swimlane;fontStyle=0;childLayout=stackLayout;horizontal=1;startSize=26;horizontalStack=0;resizeParent=1;resizeParentMax=0;resizeLast=0;collapsible=1;marginBottom=0;align=center;fontSize=14;strokeColor=#F0F0F0;" parent="1" vertex="1">
                    <mxGeometry x="674" y="494" width="160" height="78" as="geometry"/>
                </mxCell>
                <mxCell id="2T9eNnJpT9F12diKmHwY-94" value="champion_id" style="text;strokeColor=none;fillColor=none;spacingLeft=4;spacingRight=4;overflow=hidden;rotatable=0;points=[[0,0.5],[1,0.5]];portConstraint=eastwest;fontSize=12;" parent="2T9eNnJpT9F12diKmHwY-93" vertex="1">
                    <mxGeometry y="26" width="160" height="26" as="geometry"/>
                </mxCell>
                <mxCell id="2T9eNnJpT9F12diKmHwY-95" value="trait_id" style="text;strokeColor=none;fillColor=none;spacingLeft=4;spacingRight=4;overflow=hidden;rotatable=0;points=[[0,0.5],[1,0.5]];portConstraint=eastwest;fontSize=12;" parent="2T9eNnJpT9F12diKmHwY-93" vertex="1">
                    <mxGeometry y="52" width="160" height="26" as="geometry"/>
                </mxCell>
                <mxCell id="Cb6FzQwhccpI9IsfSWGt-123" value="" style="edgeStyle=entityRelationEdgeStyle;fontSize=12;html=1;endArrow=ERmandOne;startArrow=ERmandOne;" parent="1" source="39" target="Cb6FzQwhccpI9IsfSWGt-114" edge="1">
                    <mxGeometry width="100" height="100" relative="1" as="geometry">
                        <mxPoint x="520" y="500" as="sourcePoint"/>
                        <mxPoint x="620" y="400" as="targetPoint"/>
                    </mxGeometry>
                </mxCell>
            </root>
        </mxGraphModel>
    </diagram>
</mxfile>